%TF.GenerationSoftware,KiCad,Pcbnew,(6.0.10-0)*%
%TF.CreationDate,2023-02-17T16:15:27-08:00*%
%TF.ProjectId,Lab4 part2,4c616234-2070-4617-9274-322e6b696361,rev?*%
%TF.SameCoordinates,Original*%
%TF.FileFunction,Legend,Top*%
%TF.FilePolarity,Positive*%
%FSLAX46Y46*%
G04 Gerber Fmt 4.6, Leading zero omitted, Abs format (unit mm)*
G04 Created by KiCad (PCBNEW (6.0.10-0)) date 2023-02-17 16:15:27*
%MOMM*%
%LPD*%
G01*
G04 APERTURE LIST*
%ADD10C,0.150000*%
%ADD11C,0.120000*%
G04 APERTURE END LIST*
D10*
%TO.C,D1*%
X160271904Y-85632380D02*
X160271904Y-84632380D01*
X160510000Y-84632380D01*
X160652857Y-84680000D01*
X160748095Y-84775238D01*
X160795714Y-84870476D01*
X160843333Y-85060952D01*
X160843333Y-85203809D01*
X160795714Y-85394285D01*
X160748095Y-85489523D01*
X160652857Y-85584761D01*
X160510000Y-85632380D01*
X160271904Y-85632380D01*
X161795714Y-85632380D02*
X161224285Y-85632380D01*
X161510000Y-85632380D02*
X161510000Y-84632380D01*
X161414761Y-84775238D01*
X161319523Y-84870476D01*
X161224285Y-84918095D01*
%TO.C,C1*%
X122493333Y-82987142D02*
X122445714Y-83034761D01*
X122302857Y-83082380D01*
X122207619Y-83082380D01*
X122064761Y-83034761D01*
X121969523Y-82939523D01*
X121921904Y-82844285D01*
X121874285Y-82653809D01*
X121874285Y-82510952D01*
X121921904Y-82320476D01*
X121969523Y-82225238D01*
X122064761Y-82130000D01*
X122207619Y-82082380D01*
X122302857Y-82082380D01*
X122445714Y-82130000D01*
X122493333Y-82177619D01*
X123445714Y-83082380D02*
X122874285Y-83082380D01*
X123160000Y-83082380D02*
X123160000Y-82082380D01*
X123064761Y-82225238D01*
X122969523Y-82320476D01*
X122874285Y-82368095D01*
%TO.C,J1*%
X140466666Y-74742380D02*
X140466666Y-75456666D01*
X140419047Y-75599523D01*
X140323809Y-75694761D01*
X140180952Y-75742380D01*
X140085714Y-75742380D01*
X141466666Y-75742380D02*
X140895238Y-75742380D01*
X141180952Y-75742380D02*
X141180952Y-74742380D01*
X141085714Y-74885238D01*
X140990476Y-74980476D01*
X140895238Y-75028095D01*
%TO.C,R2*%
X159863333Y-100172380D02*
X159530000Y-99696190D01*
X159291904Y-100172380D02*
X159291904Y-99172380D01*
X159672857Y-99172380D01*
X159768095Y-99220000D01*
X159815714Y-99267619D01*
X159863333Y-99362857D01*
X159863333Y-99505714D01*
X159815714Y-99600952D01*
X159768095Y-99648571D01*
X159672857Y-99696190D01*
X159291904Y-99696190D01*
X160244285Y-99267619D02*
X160291904Y-99220000D01*
X160387142Y-99172380D01*
X160625238Y-99172380D01*
X160720476Y-99220000D01*
X160768095Y-99267619D01*
X160815714Y-99362857D01*
X160815714Y-99458095D01*
X160768095Y-99600952D01*
X160196666Y-100172380D01*
X160815714Y-100172380D01*
%TO.C,R1*%
X139483333Y-101092380D02*
X139150000Y-100616190D01*
X138911904Y-101092380D02*
X138911904Y-100092380D01*
X139292857Y-100092380D01*
X139388095Y-100140000D01*
X139435714Y-100187619D01*
X139483333Y-100282857D01*
X139483333Y-100425714D01*
X139435714Y-100520952D01*
X139388095Y-100568571D01*
X139292857Y-100616190D01*
X138911904Y-100616190D01*
X140435714Y-101092380D02*
X139864285Y-101092380D01*
X140150000Y-101092380D02*
X140150000Y-100092380D01*
X140054761Y-100235238D01*
X139959523Y-100330476D01*
X139864285Y-100378095D01*
%TO.C,R4*%
X136202380Y-81596666D02*
X135726190Y-81930000D01*
X136202380Y-82168095D02*
X135202380Y-82168095D01*
X135202380Y-81787142D01*
X135250000Y-81691904D01*
X135297619Y-81644285D01*
X135392857Y-81596666D01*
X135535714Y-81596666D01*
X135630952Y-81644285D01*
X135678571Y-81691904D01*
X135726190Y-81787142D01*
X135726190Y-82168095D01*
X135535714Y-80739523D02*
X136202380Y-80739523D01*
X135154761Y-80977619D02*
X135869047Y-81215714D01*
X135869047Y-80596666D01*
%TO.C,C2*%
X120650833Y-94757142D02*
X120603214Y-94804761D01*
X120460357Y-94852380D01*
X120365119Y-94852380D01*
X120222261Y-94804761D01*
X120127023Y-94709523D01*
X120079404Y-94614285D01*
X120031785Y-94423809D01*
X120031785Y-94280952D01*
X120079404Y-94090476D01*
X120127023Y-93995238D01*
X120222261Y-93900000D01*
X120365119Y-93852380D01*
X120460357Y-93852380D01*
X120603214Y-93900000D01*
X120650833Y-93947619D01*
X121031785Y-93947619D02*
X121079404Y-93900000D01*
X121174642Y-93852380D01*
X121412738Y-93852380D01*
X121507976Y-93900000D01*
X121555595Y-93947619D01*
X121603214Y-94042857D01*
X121603214Y-94138095D01*
X121555595Y-94280952D01*
X120984166Y-94852380D01*
X121603214Y-94852380D01*
%TO.C,R3*%
X146953333Y-82462380D02*
X146620000Y-81986190D01*
X146381904Y-82462380D02*
X146381904Y-81462380D01*
X146762857Y-81462380D01*
X146858095Y-81510000D01*
X146905714Y-81557619D01*
X146953333Y-81652857D01*
X146953333Y-81795714D01*
X146905714Y-81890952D01*
X146858095Y-81938571D01*
X146762857Y-81986190D01*
X146381904Y-81986190D01*
X147286666Y-81462380D02*
X147905714Y-81462380D01*
X147572380Y-81843333D01*
X147715238Y-81843333D01*
X147810476Y-81890952D01*
X147858095Y-81938571D01*
X147905714Y-82033809D01*
X147905714Y-82271904D01*
X147858095Y-82367142D01*
X147810476Y-82414761D01*
X147715238Y-82462380D01*
X147429523Y-82462380D01*
X147334285Y-82414761D01*
X147286666Y-82367142D01*
%TO.C,U1*%
X138758095Y-87832380D02*
X138758095Y-88641904D01*
X138805714Y-88737142D01*
X138853333Y-88784761D01*
X138948571Y-88832380D01*
X139139047Y-88832380D01*
X139234285Y-88784761D01*
X139281904Y-88737142D01*
X139329523Y-88641904D01*
X139329523Y-87832380D01*
X140329523Y-88832380D02*
X139758095Y-88832380D01*
X140043809Y-88832380D02*
X140043809Y-87832380D01*
X139948571Y-87975238D01*
X139853333Y-88070476D01*
X139758095Y-88118095D01*
%TO.C,D2*%
X123261904Y-72582380D02*
X123261904Y-71582380D01*
X123500000Y-71582380D01*
X123642857Y-71630000D01*
X123738095Y-71725238D01*
X123785714Y-71820476D01*
X123833333Y-72010952D01*
X123833333Y-72153809D01*
X123785714Y-72344285D01*
X123738095Y-72439523D01*
X123642857Y-72534761D01*
X123500000Y-72582380D01*
X123261904Y-72582380D01*
X124214285Y-71677619D02*
X124261904Y-71630000D01*
X124357142Y-71582380D01*
X124595238Y-71582380D01*
X124690476Y-71630000D01*
X124738095Y-71677619D01*
X124785714Y-71772857D01*
X124785714Y-71868095D01*
X124738095Y-72010952D01*
X124166666Y-72582380D01*
X124785714Y-72582380D01*
D11*
%TO.C,D1*%
X162610000Y-85865000D02*
X158550000Y-85865000D01*
X158550000Y-85865000D02*
X158550000Y-88135000D01*
X158550000Y-88135000D02*
X162610000Y-88135000D01*
%TO.C,C1*%
X120175000Y-83445000D02*
X120175000Y-85315000D01*
X120175000Y-85315000D02*
X124260000Y-85315000D01*
X124260000Y-83445000D02*
X120175000Y-83445000D01*
%TO.C,J1*%
X135720000Y-66400000D02*
X135720000Y-74020000D01*
X135720000Y-67670000D02*
X145880000Y-67670000D01*
X135720000Y-74020000D02*
X145880000Y-74020000D01*
X145880000Y-66400000D02*
X135720000Y-66400000D01*
X145880000Y-74020000D02*
X145880000Y-66400000D01*
%TO.C,R2*%
X160257064Y-97335000D02*
X159802936Y-97335000D01*
X160257064Y-98805000D02*
X159802936Y-98805000D01*
%TO.C,R1*%
X139422936Y-103025000D02*
X139877064Y-103025000D01*
X139422936Y-101555000D02*
X139877064Y-101555000D01*
%TO.C,R4*%
X133365000Y-81202936D02*
X133365000Y-81657064D01*
X134835000Y-81202936D02*
X134835000Y-81657064D01*
%TO.C,C2*%
X120556248Y-95345000D02*
X121078752Y-95345000D01*
X120556248Y-96815000D02*
X121078752Y-96815000D01*
%TO.C,R3*%
X146892936Y-82925000D02*
X147347064Y-82925000D01*
X146892936Y-84395000D02*
X147347064Y-84395000D01*
%TO.C,U1*%
X139520000Y-89220000D02*
X141470000Y-89220000D01*
X139520000Y-89220000D02*
X136070000Y-89220000D01*
X139520000Y-94340000D02*
X141470000Y-94340000D01*
X139520000Y-94340000D02*
X137570000Y-94340000D01*
%TO.C,D2*%
X121540000Y-75085000D02*
X125600000Y-75085000D01*
X125600000Y-72815000D02*
X121540000Y-72815000D01*
X121540000Y-72815000D02*
X121540000Y-75085000D01*
%TD*%
M02*
